<svg height="512pt" viewBox="0 0 512 512" width="512pt" xmlns="http://www.w3.org/2000/svg"><path d="m385.5 214.5c-2.699219-2.699219-6.300781-4.5-10.5-4.5h-360c-4.199219 0-7.800781 1.800781-10.5 4.5s-4.5 6.300781-4.5 10.5v272c0 4.199219 1.800781 7.800781 4.5 10.5s6.300781 4.5 10.5 4.5h360c4.199219 0 7.800781-1.800781 10.5-4.5s4.5-6.300781 4.5-10.5v-272c0-4.199219-1.800781-7.800781-4.5-10.5zm0 0" fill="#596c76"/><path d="m493.25 270.484375-121.882812 29.96875c-6.679688 1.671875-11.367188 7.660156-11.367188 14.546875v92c0 6.886719 4.6875 12.875 11.367188 14.546875l121.882812 29.96875zm0 0" fill="#32393f"/><path d="m390 225v272c0 4.199219-1.800781 7.800781-4.5 10.5s-6.300781 4.5-10.5 4.5h-180v-302h180c4.199219 0 7.800781 1.800781 10.5 4.5s4.5 6.300781 4.5 10.5zm0 0" fill="#474f54"/><path d="m497 482c-8.289062 0-15-6.710938-15-15v-212c0-8.289062 6.710938-15 15-15s15 6.710938 15 15v212c0 8.289062-6.710938 15-15 15zm0 0" fill="#474f54"/><path d="m330 285v62c0 8.398438-6.597656 15-15 15h-240c-8.402344 0-15-6.601562-15-15v-62c0-8.402344 6.597656-15 15-15h240c8.402344 0 15 6.597656 15 15zm0 0" fill="#fdbf00"/><path d="m315 452h-60c-8.289062 0-15-6.710938-15-15s6.710938-15 15-15h60c8.289062 0 15 6.710938 15 15s-6.710938 15-15 15zm0 0" fill="#bbdcff"/><path d="m150 437c0 8.285156-6.714844 15-15 15s-15-6.714844-15-15 6.714844-15 15-15 15 6.714844 15 15zm0 0" fill="#e0f4ff"/><path d="m90 437c0 8.285156-6.714844 15-15 15s-15-6.714844-15-15 6.714844-15 15-15 15 6.714844 15 15zm0 0" fill="#e0f4ff"/><path d="m330 285v62c0 8.398438-6.597656 15-15 15h-120v-92h120c8.402344 0 15 6.597656 15 15zm0 0" fill="#ff9100"/><path d="m195 26.398438c-20.699219-16.5-46.800781-26.398438-75-26.398438-66.300781 0-120 53.699219-120 120s53.699219 120 120 120c28.199219 0 54.300781-9.902344 75-26.398438 27.597656-21.902343 45-55.800781 45-93.601562s-17.402344-71.699219-45-93.601562zm0 0" fill="#474f54"/><path d="m120 180c-33.089844 0-60-26.910156-60-60s26.910156-60 60-60 60 26.910156 60 60-26.910156 60-60 60zm0 0" fill="#b5baf3"/><path d="m300 240c-49.628906 0-90-40.371094-90-90s40.371094-90 90-90 90 40.371094 90 90-40.371094 90-90 90zm0 0" fill="#32393f"/><path d="m300 180c-16.539062 0-30-13.460938-30-30s13.460938-30 30-30 30 13.460938 30 30-13.460938 30-30 30zm0 0" fill="#7984eb"/><path d="m240 120c0 37.800781-17.402344 71.699219-45 93.601562v-187.203124c27.597656 21.902343 45 55.800781 45 93.601562zm0 0" fill="#32393f"/></svg>